<svg version="1.1" xmlns="http://www.w3.org/2000/svg" width="75" height="32" viewBox="0 0 75 32">
<title>footfour</title>
<path fill="#f4f4fd" d="M1.143 0h73.143c0.631 0 1.143 0.512 1.143 1.143v29.714c0 0.631-0.512 1.143-1.143 1.143h-73.143c-0.631 0-1.143-0.512-1.143-1.143v0-29.714c0-0.631 0.512-1.143 1.143-1.143z"></path>
<path fill="#4d5ae5" d="M46.842 9.442c-0.036-0.109-0.13-0.19-0.244-0.207l-0.002-0-1.091-0.159-0.489-0.989c-0.103-0.208-0.444-0.208-0.547 0l-0.489 0.989-1.092 0.159c-0.148 0.023-0.26 0.149-0.26 0.302 0 0.085 0.035 0.162 0.091 0.217l0 0 0.79 0.77-0.187 1.087c-0.002 0.015-0.004 0.032-0.004 0.049 0 0.169 0.137 0.306 0.306 0.306 0.051 0 0.099-0.013 0.142-0.035l-0.002 0.001 0.977-0.514 0.977 0.514c0.041 0.022 0.090 0.035 0.142 0.035 0.067 0 0.13-0.022 0.18-0.058l-0.001 0.001c0.076-0.056 0.125-0.145 0.125-0.246 0-0.018-0.002-0.036-0.005-0.054l0 0.002-0.186-1.087 0.79-0.77c0.057-0.055 0.092-0.132 0.092-0.218 0-0.034-0.005-0.066-0.016-0.096l0.001 0.002zM45.435 10.201c-0.057 0.055-0.092 0.132-0.092 0.217 0 0.019 0.002 0.037 0.005 0.054l-0-0.002 0.109 0.637-0.572-0.3c-0.041-0.022-0.090-0.034-0.142-0.034s-0.101 0.013-0.144 0.035l0.002-0.001-0.572 0.3 0.109-0.637c0.003-0.015 0.004-0.033 0.004-0.052 0-0.085-0.035-0.163-0.091-0.218l-0-0-0.463-0.451 0.639-0.093c0.101-0.015 0.185-0.078 0.228-0.165l0.001-0.002 0.286-0.579 0.286 0.579c0.045 0.090 0.13 0.152 0.23 0.167l0.639 0.093-0.462 0.451zM43.505 18.584h-0.609v0.61h0.609v-0.61zM43.505 19.803h-0.609v0.61h0.609v-0.61z"></path>
<path fill="#4d5ae5" d="M44.114 19.194h-0.609v0.61h0.609v-0.61zM42.895 19.194h-0.61v0.61h0.61v-0.61zM41.371 21.937h-0.609v0.61h0.609v-0.61zM41.371 23.156h-0.609v0.61h0.609v-0.61zM41.981 22.546h-0.61v0.61h0.61v-0.61zM40.762 22.546h-0.61v0.61h0.61v-0.61zM37.714 20.718h-0.609v0.61h0.609v-0.61zM37.714 21.937h-0.609v0.61h0.609v-0.61zM38.324 21.327h-0.609v0.61h0.609v-0.61zM37.105 21.327h-0.61v0.61h0.61v-0.61zM31.924 10.355h-0.609v0.61h0.609v-0.61zM31.924 11.575h-0.609v0.61h0.609v-0.61zM32.533 10.965h-0.609v0.61h0.609v-0.61zM31.314 10.965h-0.61v0.61h0.61v-0.61z"></path>
<path fill="#2e2f42" d="M42.694 14.948c-0.16-0.215-0.399-0.364-0.674-0.402l-0.005-0.001c-0.044-0.007-0.094-0.010-0.146-0.010-0.235 0-0.451 0.080-0.623 0.213l0.002-0.002-0.715 0.549-1.085 0.81-0.776-0.309c1.394-0.632 2.346-2.010 2.351-3.61v-0.001c0-2.185-1.784-3.962-3.978-3.962s-3.978 1.777-3.978 3.962c0 0.792 0.237 1.528 0.64 2.148l-1.582-0.014c-0.005 0-0.009 0.002-0.013 0.003-0.032 0.001-0.063 0.008-0.091 0.019l0.002-0.001c-0.007 0.003-0.015 0.004-0.022 0.008l-0.011 0.004-1.848 0.912-1.082 0.52c-0.296 0.182-0.491 0.503-0.491 0.871 0 0.562 0.456 1.018 1.018 1.018 0.178 0 0.345-0.046 0.49-0.125l-0.005 0.003 0.793-0.422 1.294-0.668 0.775-0.005-3.876 3.858c-0.181 0.18-0.28 0.418-0.28 0.673s0.099 0.493 0.28 0.674c0.173 0.171 0.412 0.277 0.674 0.277s0.501-0.106 0.675-0.277l-0 0 0.751-0.748 0.995-0.743 0.515 0.513-1.773 1.765c-0.181 0.18-0.28 0.418-0.28 0.673s0.099 0.493 0.28 0.674c0.173 0.172 0.411 0.278 0.674 0.278s0.501-0.106 0.674-0.278l1.991-1.982 0.577-0.571-0.002-0.002c0.004-0.004 0.009-0.005 0.013-0.009l2.952-3.233 1.983 0.282c0.012 0.002 0.025 0.002 0.039 0.002 0.040 0 0.078-0.008 0.114-0.022l-0.002 0.001 0.028-0.013c0.011-0.006 0.023-0.009 0.033-0.015l1.836-1.219c0.007-0.005 0.010-0.012 0.017-0.017s0.016-0.008 0.023-0.015l0.727-0.681c0.378-0.354 0.43-0.934 0.121-1.35zM29.789 17.012c-0.056 0.031-0.123 0.049-0.195 0.049-0.044 0-0.087-0.007-0.127-0.020l0.003 0.001c-0.167-0.054-0.286-0.209-0.286-0.391 0-0.134 0.064-0.253 0.163-0.327l0.001-0.001 0.751-0.361 0.181 0.528 0.076 0.222-0.567 0.301zM31.787 15.967l-0.885 0.457-0.251-0.733 1.158-0.572-0.023 0.848zM40.415 12.184c0 0.525-0.125 1.020-0.342 1.463l-2.389-1.085c-0.025-0.329-0.196-0.613-0.447-0.791l-0.003-0.002 0.837-2.777c1.368 0.443 2.341 1.704 2.345 3.193v0zM33.679 12.184c0-1.848 1.511-3.352 3.368-3.352 0.145 0 0.286 0.012 0.426 0.030l-0.818 2.716c-0.011 0-0.021-0.003-0.033-0.003-0.59 0-1.070 0.479-1.070 1.067s0.48 1.067 1.070 1.067c0.397 0 0.74-0.219 0.925-0.54l2.207 1.003c-0.621 0.83-1.601 1.362-2.706 1.362-1.853 0-3.357-1.496-3.369-3.347v-0.001zM37.083 12.641c0 0.252-0.207 0.457-0.461 0.457s-0.461-0.205-0.461-0.457 0.207-0.457 0.461-0.457c0 0 0.001 0 0.001 0 0.253 0 0.458 0.204 0.46 0.457v0zM29.98 21.226c-0.062 0.062-0.148 0.1-0.243 0.1-0.19 0-0.344-0.152-0.346-0.341v-0c0-0.091 0.036-0.177 0.101-0.241l0.55-0.548 0.486 0.484-0.548 0.546zM31.816 23.36c-0.062 0.062-0.148 0.1-0.243 0.1-0.19 0-0.344-0.152-0.346-0.341v-0c0-0.091 0.035-0.176 0.101-0.241l0.55-0.548 0.487 0.484-0.548 0.546zM33.806 21.378l-0.001 0.001-1.009 1.006-0.487-0.484 1.009-1.004c0.023-0.023 0.037-0.050 0.051-0.077 0.004-0.008 0.012-0.015 0.015-0.023 0.009-0.023 0.011-0.049 0.015-0.073 0.002-0.014 0.008-0.027 0.008-0.041 0-0.020-0.007-0.040-0.012-0.060-0.004-0.018-0.004-0.037-0.011-0.055-0.014-0.030-0.031-0.056-0.052-0.079l0 0c-0.006-0.007-0.008-0.015-0.014-0.022l-0.001-0.001-0.918-0.914c-0.010-0.010-0.022-0.014-0.033-0.022-0.016-0.012-0.032-0.024-0.050-0.033s-0.035-0.014-0.053-0.019c-0.017-0.006-0.038-0.010-0.058-0.011l-0.001-0c-0.019-0.001-0.036 0.001-0.055 0.003-0.020 0.002-0.039 0.005-0.059 0.012s-0.036 0.016-0.054 0.026c-0.011 0.006-0.024 0.009-0.035 0.016l-1.013 0.756-0.515-0.513 1.371-1.363 2.492 2.451-0.53 0.525zM37.702 17.368c-0.009-0.001-0.017 0.002-0.026 0.002-0.005-0-0.010-0-0.015-0-0.018 0-0.035 0.002-0.052 0.005l0.002-0c-0.017 0.003-0.034 0.006-0.050 0.012-0.039 0.015-0.073 0.036-0.102 0.062l0-0c-0.007 0.006-0.016 0.009-0.023 0.017l-2.685 2.94-2.473-2.432 1.619-1.61c0.055-0.055 0.089-0.131 0.089-0.215 0-0.168-0.137-0.305-0.305-0.305-0 0-0 0-0.001 0h0l-1.268 0.008 0.016-0.919 1.774 0.015c0.722 0.74 1.729 1.199 2.843 1.199 0.26 0 0.514-0.025 0.76-0.073l-0.025 0.004c0.023 0.018 0.045 0.037 0.074 0.049l1.377 0.549 0.087 0.433 0.102 0.506-1.716-0.244zM40.012 17.47l-0.179-0.89 0.827-0.617 0.217 0.287 0.325 0.431-1.189 0.789zM42.157 15.852l-0.479 0.449-0.532-0.706 0.475-0.364c0.069-0.054 0.157-0.086 0.253-0.086 0.135 0 0.256 0.065 0.331 0.165l0.001 0.001c0.050 0.067 0.081 0.152 0.081 0.243 0 0.117-0.050 0.223-0.129 0.298l-0 0z"></path>
<path fill="#2e2f42" d="M36.344 17.454l-1.225-1.219c-0.055-0.055-0.131-0.089-0.215-0.089s-0.16 0.034-0.215 0.089v0l-1.224 1.219c-0.055 0.056-0.088 0.132-0.088 0.216s0.034 0.16 0.088 0.216l-0-0 1.224 1.219c0.055 0.055 0.131 0.089 0.215 0.089s0.16-0.034 0.215-0.089v0l1.225-1.219c0.055-0.055 0.089-0.132 0.089-0.216s-0.034-0.161-0.089-0.216l0 0zM34.905 18.459l-0.792-0.789 0.792-0.789 0.793 0.789-0.793 0.789zM38.38 9.755l-0.147 0.592c0.041 0.010 0.993 0.258 0.993 1.228h0.609c0-1.153-0.952-1.695-1.455-1.82zM39.835 12.184h-0.609v0.61h0.609v-0.61z"></path>
</svg>
