<!-- Generated by IcoMoon.io -->
<svg version="1.1" xmlns="http://www.w3.org/2000/svg" width="75" height="32" viewBox="0 0 75 32">
<title>foottwo</title>
<path fill="#f4f4fd" d="M1.143 0h73.143c0.631 0 1.143 0.512 1.143 1.143v29.714c0 0.631-0.512 1.143-1.143 1.143h-73.143c-0.631 0-1.143-0.512-1.143-1.143v0-29.714c0-0.631 0.512-1.143 1.143-1.143z"></path>
<path fill="#2e2f42" d="M46.455 15.601c-0-4.83-3.916-8.746-8.746-8.746s-8.746 3.916-8.746 8.746c0 3.88 2.527 7.17 6.024 8.314l0.062 0.017c0.032 0.010 0.069 0.015 0.108 0.015 0.072 0 0.14-0.020 0.197-0.054l-0.002 0.001c0.077-0.046 0.134-0.117 0.161-0.201l0.001-0.003 2.209-7c0.603-0.002 1.091-0.491 1.091-1.094 0-0.604-0.49-1.094-1.094-1.094-0.174 0-0.338 0.041-0.484 0.113l0.006-0.003-2.918-2.918c-0.066-0.066-0.157-0.107-0.258-0.107-0.201 0-0.364 0.163-0.364 0.364 0 0.101 0.041 0.192 0.107 0.258v0l2.916 2.919c-0.069 0.138-0.11 0.3-0.11 0.472 0 0.344 0.162 0.649 0.413 0.845l0.002 0.002-2.104 6.67c-4.159-1.532-6.288-6.145-4.756-10.304s6.145-6.288 10.304-4.756c3.092 1.162 5.252 4.094 5.252 7.53 0 3.25-1.932 6.048-4.709 7.31l-0.050 0.020-0.227-1.071c-0.036-0.166-0.182-0.289-0.356-0.289-0.093 0-0.179 0.035-0.243 0.093l0-0-2.193 1.957c-0.076 0.067-0.123 0.164-0.123 0.272 0 0.162 0.106 0.299 0.252 0.346l0.003 0.001 2.799 0.893c0.033 0.011 0.071 0.017 0.111 0.017 0.202 0 0.365-0.163 0.365-0.365 0-0.026-0.003-0.052-0.008-0.077l0 0.002-0.223-1.051c3.159-1.357 5.331-4.441 5.331-8.033 0-0.006 0-0.013-0-0.019v0.001zM37.71 15.236c0.202 0 0.365 0.163 0.365 0.365s-0.163 0.365-0.365 0.365v0c-0.202 0-0.365-0.163-0.365-0.365s0.163-0.365 0.365-0.365v0zM38.91 23.73l1.248-1.113 0.345 1.623-1.593-0.51z"></path>
<path fill="#4d5ae5" d="M37.345 8.677v0.729c0 0.201 0.163 0.364 0.364 0.364s0.364-0.163 0.364-0.364v0-0.729c0-0.201-0.163-0.364-0.364-0.364s-0.364 0.163-0.364 0.364v0zM30.786 15.236c-0.201 0-0.364 0.163-0.364 0.364s0.163 0.364 0.364 0.364h0.729c0.201 0 0.364-0.163 0.364-0.364s-0.163-0.364-0.364-0.364h-0.729zM44.633 15.965c0.008 0.001 0.017 0.001 0.027 0.001 0.202 0 0.365-0.163 0.365-0.365s-0.163-0.365-0.365-0.365c-0.010 0-0.019 0-0.028 0.001l0.001-0h-0.729c-0.201 0-0.364 0.163-0.364 0.364s0.163 0.364 0.364 0.364h0.729z"></path>
</svg>
