<!-- Generated by IcoMoon.io -->
<svg version="1.1" xmlns="http://www.w3.org/2000/svg" width="75" height="32" viewBox="0 0 75 32">
<title>footone</title>
<path fill="#f4f4fd" d="M1.143 0h73.143c0.631 0 1.143 0.512 1.143 1.143v29.714c0 0.631-0.512 1.143-1.143 1.143h-73.143c-0.631 0-1.143-0.512-1.143-1.143v0-29.714c0-0.631 0.512-1.143 1.143-1.143z"></path>
<path fill="#2e2f42" d="M46.156 19.484l-4.825-4.86 0.535-2.637c0.138 0.054 0.285 0.082 0.433 0.083h0.004c0.004 0 0.009 0 0.014 0 0.682 0 1.234-0.552 1.234-1.234s-0.552-1.234-1.234-1.234c-0.682 0-1.234 0.552-1.234 1.234 0 0.148 0.026 0.291 0.074 0.422l-0.003-0.009-2.834 0.346-4.623-4.647c-0.055-0.056-0.131-0.090-0.215-0.090-0.083 0-0.159 0.034-0.213 0.088v0l-0.864 0.859c-0.055 0.055-0.089 0.131-0.089 0.215s0.034 0.16 0.089 0.216v0l0.465 0.472c-0.653 1.178-1.038 2.584-1.038 4.079 0 2.346 0.946 4.471 2.478 6.014l-0.001-0c0.024 0.022 0.051 0.041 0.081 0.055l0.002 0.001c-0.018 0.094-0.029 0.202-0.030 0.312v3.536h-3.657c-0.841 0.001-1.523 0.683-1.524 1.524v0.61c0 0.168 0.137 0.305 0.305 0.305h14.019c0.168 0 0.305-0.137 0.305-0.305v0-0.61c-0.001-0.841-0.683-1.523-1.524-1.524h-3.657v-1.567c0.573 0.12 1.157 0.181 1.742 0.183 1.474-0.002 2.86-0.379 4.067-1.041l-0.044 0.022 0.467 0.47c0.055 0.056 0.131 0.090 0.215 0.090 0.083 0 0.159-0.034 0.213-0.088v0l0.864-0.859c0.055-0.055 0.089-0.131 0.089-0.215s-0.034-0.16-0.089-0.215v0zM41.874 10.419c0.11-0.111 0.263-0.179 0.432-0.179 0.337 0 0.61 0.273 0.61 0.61s-0.273 0.61-0.61 0.61c-0.001 0-0.002 0-0.003 0h-0.002c-0.335-0.001-0.607-0.273-0.607-0.609 0-0.169 0.069-0.323 0.181-0.433l-0.001-0zM41.157 12.421l-0.342 1.683-0.672-0.676 1.014-1.008zM40.811 11.906l-1.097 1.091-0.849-0.853 1.946-0.237zM42.288 23.314c0.505 0 0.914 0.409 0.914 0.914v0.305h-13.409v-0.305c0-0.505 0.409-0.914 0.914-0.914h11.581zM38.021 22.095v0.61h-3.048v-0.61h3.048zM34.974 21.486v-2.316c0-0.739 0.684-1.341 1.524-1.341s1.524 0.602 1.524 1.341v2.316h-3.048zM38.631 20.517v-1.347c0-1.075-0.957-1.95-2.133-1.95-0.010-0-0.022-0-0.035-0-0.773 0-1.451 0.404-1.835 1.012l-0.005 0.009c-1.348-1.418-2.178-3.34-2.178-5.456 0-1.322 0.324-2.569 0.897-3.665l-0.021 0.044 10.63 10.691c-1.042 0.541-2.274 0.858-3.581 0.858-0.616 0-1.216-0.070-1.791-0.204l0.053 0.010zM45.082 20.126l-12.033-12.103 0.431-0.43 4.534 4.56c0.002 0 0.003 0.004 0.006 0.005l7.494 7.538-0.433 0.43z"></path>
<path fill="#4d5ae5" d="M36.5 18.438h-0.003c-0.493 0.016-0.886 0.419-0.886 0.915s0.392 0.897 0.882 0.914l0.002 0h0.003c0.493-0.016 0.886-0.419 0.886-0.915 0-0.494-0.392-0.897-0.882-0.914l-0.002-0zM36.714 19.568c-0.055 0.055-0.131 0.089-0.215 0.089-0.168 0-0.305-0.137-0.305-0.305s0.136-0.305 0.304-0.305h0c0 0 0 0 0 0 0.168 0 0.304 0.136 0.304 0.304 0 0.085-0.035 0.162-0.091 0.217l-0 0h0.003z"></path>
</svg>
