<!-- Generated by IcoMoon.io -->
<svg version="1.1" xmlns="http://www.w3.org/2000/svg" width="75" height="32" viewBox="0 0 75 32">
<title>footthree</title>
<path fill="#f4f4fd" d="M1.143 0h73.143c0.631 0 1.143 0.512 1.143 1.143v29.714c0 0.631-0.512 1.143-1.143 1.143h-73.143c-0.631 0-1.143-0.512-1.143-1.143v0-29.714c0-0.631 0.512-1.143 1.143-1.143z"></path>
<path fill="#4d5ae5" d="M37.1 15.408h0.609v2.741h-0.609v-2.741zM39.537 16.627h0.609v1.523h-0.609v-1.523zM34.663 17.541h0.609v0.609h-0.609v-0.609zM32.836 17.236h0.609v0.914h-0.609v-0.914z"></path>
<path fill="#2e2f42" d="M29.485 23.023h14.621c0.505 0 0.914-0.409 0.914-0.914v0-1.218c0-0.505-0.409-0.914-0.914-0.914v0h-0.305v-7.596l1.73-1.639c0.119 0.060 0.259 0.095 0.408 0.095 0.508 0 0.92-0.412 0.92-0.92s-0.412-0.92-0.92-0.92c-0.508 0-0.92 0.412-0.92 0.92 0 0.141 0.032 0.275 0.089 0.394l-0.002-0.006-1.304 1.236v-0.703c0-0.505-0.409-0.914-0.914-0.914v0h-12.184c-0.505 0-0.914 0.409-0.914 0.914v0 9.138h-0.305c-0.505 0-0.914 0.409-0.914 0.914v0 1.218c0 0.505 0.409 0.914 0.914 0.914zM45.934 9.621c0.168 0 0.305 0.137 0.305 0.305s-0.137 0.305-0.305 0.305v0c-0.168 0-0.305-0.137-0.305-0.305s0.137-0.305 0.305-0.305v0zM30.399 10.839c0-0.168 0.136-0.305 0.305-0.305h12.184c0.168 0 0.305 0.136 0.305 0.305v1.279l-0.609 0.579v-1.249c0-0.168-0.137-0.305-0.305-0.305v0h-10.966c-0.168 0-0.305 0.137-0.305 0.305v0 7.615c0 0.168 0.136 0.305 0.305 0.305h10.966c0.168 0 0.305-0.137 0.305-0.305v0-5.528l0.609-0.577v7.019h-12.793v-9.138zM33.141 14.799c-0.001 0-0.002 0-0.002 0-0.505 0-0.914 0.409-0.914 0.914s0.409 0.914 0.914 0.914c0.247 0 0.471-0.098 0.636-0.257l-0 0 1.059 0.531c0.040 0.020 0.087 0.032 0.136 0.032 0.090 0 0.172-0.039 0.227-0.102l0-0 2.251-2.532 2.213 1.658c0.050 0.038 0.114 0.061 0.183 0.061 0.081 0 0.155-0.031 0.209-0.083l-0 0 1.923-1.822v4.646h-10.357v-7.006h10.357v1.52l-2.155 2.041-2.231-1.673c-0.050-0.038-0.114-0.061-0.183-0.061-0.090 0-0.171 0.039-0.227 0.102l-0 0-2.282 2.567-0.853-0.427c0.006-0.037 0.010-0.073 0.012-0.111 0-0.505-0.409-0.914-0.914-0.914v0zM33.445 15.713c0 0.005 0 0.011 0 0.017 0 0.169-0.137 0.306-0.306 0.306s-0.306-0.137-0.306-0.306c0-0.006 0-0.013 0.001-0.019l-0 0.001c0.010-0.161 0.143-0.288 0.305-0.288s0.296 0.127 0.306 0.288l0 0.001zM35.273 20.587h3.046v0.305c0 0.168-0.137 0.305-0.305 0.305h-2.437c-0.168 0-0.305-0.137-0.305-0.305v0-0.305zM29.181 20.891c0-0.168 0.137-0.305 0.305-0.305h5.178v0.305c0 0.505 0.409 0.914 0.914 0.914h2.437c0.505 0 0.914-0.409 0.914-0.914v0-0.305h5.178c0.168 0 0.305 0.136 0.305 0.305v1.218c-0.001 0.168-0.137 0.304-0.305 0.305h-14.621c-0.168 0-0.305-0.137-0.305-0.305v0-1.218z"></path>
</svg>
