<!-- Generated by IcoMoon.io -->
<svg version="1.1" xmlns="http://www.w3.org/2000/svg" width="61" height="32" viewBox="0 0 61 32">
<title>iconsthree</title>
<path fill="#8e8f99" d="M25.022 23.718c0-0 0.001-0 0.002-0 0.011 0 0.022 0.005 0.029 0.012v0l0.080 0.076c-0.063 0.061-0.138 0.11-0.222 0.142l-0.004 0.002c-0.088 0.032-0.19 0.051-0.297 0.051-0.008 0-0.016-0-0.024-0l0.001 0c-0.005 0-0.010 0-0.015 0-0.102 0-0.2-0.018-0.292-0.050l0.006 0.002c-0.249-0.085-0.425-0.317-0.425-0.59 0-0.008 0-0.016 0-0.024l-0 0.001c-0-0.004-0-0.009-0-0.014 0-0.185 0.081-0.351 0.21-0.464l0.001-0.001c0.068-0.058 0.148-0.104 0.236-0.134l0.005-0.002c0.089-0.030 0.192-0.048 0.299-0.048 0.004 0 0.008 0 0.012 0h-0.001c0.005-0 0.011-0 0.018-0 0.097 0 0.19 0.016 0.276 0.046l-0.006-0.002c0.079 0.029 0.152 0.070 0.216 0.121l-0.067 0.081c-0.005 0.006-0.010 0.011-0.017 0.015l-0 0c-0.008 0.005-0.018 0.007-0.027 0.006s-0.020-0.004-0.029-0.009l-0.036-0.021-0.050-0.027c-0.017-0.008-0.039-0.017-0.062-0.025l-0.005-0.002c-0.062-0.020-0.133-0.031-0.207-0.031-0.081 0-0.158 0.014-0.231 0.039l0.005-0.002c-0.131 0.042-0.234 0.137-0.287 0.259l-0.001 0.003c-0.026 0.061-0.041 0.132-0.041 0.206 0 0.002 0 0.005 0 0.007v-0c-0 0.002-0 0.005-0 0.007 0 0.075 0.015 0.147 0.042 0.213l-0.001-0.004c0.052 0.122 0.151 0.216 0.275 0.258l0.003 0.001c0.059 0.022 0.128 0.034 0.2 0.034 0.003 0 0.005-0 0.008-0h-0c0.001 0 0.003 0 0.005 0 0.041 0 0.082-0.003 0.122-0.008l-0.005 0c0.102-0.011 0.193-0.051 0.266-0.112l-0.001 0.001c0.011-0.008 0.024-0.013 0.038-0.014h0zM27.34 23.338c0 0.002 0 0.004 0 0.007 0 0.094-0.020 0.184-0.056 0.264l0.002-0.004c-0.033 0.077-0.084 0.148-0.151 0.207s-0.148 0.105-0.237 0.136c-0.091 0.030-0.196 0.048-0.305 0.048s-0.214-0.018-0.312-0.050l0.007 0.002c-0.091-0.032-0.17-0.078-0.237-0.137l0.001 0.001c-0.064-0.057-0.116-0.127-0.151-0.205l-0.002-0.004c-0.034-0.079-0.054-0.171-0.054-0.267s0.020-0.188 0.056-0.271l-0.002 0.004c0.075-0.164 0.214-0.288 0.385-0.34l0.004-0.001c0.091-0.031 0.196-0.049 0.305-0.049s0.214 0.018 0.312 0.051l-0.007-0.002c0.089 0.031 0.17 0.077 0.237 0.136 0.127 0.114 0.206 0.279 0.206 0.462 0 0.005-0 0.009-0 0.014v-0.001zM27.13 23.338c0-0.004 0-0.009 0-0.014 0-0.072-0.014-0.141-0.039-0.204l0.001 0.004c-0.050-0.124-0.15-0.219-0.274-0.26l-0.003-0.001c-0.066-0.022-0.143-0.035-0.222-0.035s-0.156 0.013-0.227 0.037l0.005-0.001c-0.066 0.023-0.123 0.057-0.17 0.101l0-0c-0.047 0.043-0.084 0.097-0.107 0.157l-0.001 0.003c-0.024 0.064-0.038 0.137-0.038 0.215s0.014 0.151 0.040 0.219l-0.001-0.004c0.050 0.123 0.151 0.218 0.275 0.259l0.003 0.001c0.066 0.022 0.143 0.034 0.222 0.034s0.156-0.013 0.227-0.036l-0.005 0.001c0.128-0.042 0.228-0.136 0.276-0.257l0.001-0.003c0.024-0.059 0.038-0.128 0.038-0.201 0-0.005-0-0.009-0-0.014v0.001zM28.922 23.563l0.021 0.048 0.023-0.048c0.008-0.015 0.016-0.032 0.026-0.047l0.513-0.797c0.010-0.014 0.019-0.022 0.029-0.025s0.021-0.004 0.032-0.004c0.003 0 0.007 0 0.010 0l-0-0h0.152v1.296h-0.18v-1.038l-0.516 0.808c-0.007 0.012-0.017 0.022-0.030 0.029s-0.028 0.011-0.044 0.011h-0.029c-0.016 0-0.031-0.004-0.044-0.011s-0.024-0.017-0.030-0.030l-0.531-0.813v1.040h-0.174v-1.293h0.152c0.002-0 0.005-0 0.007-0 0.012 0 0.024 0.002 0.036 0.004l-0.001-0c0.012 0.005 0.022 0.014 0.028 0.025l0 0 0.524 0.798c0.009 0.013 0.018 0.028 0.025 0.044l0.001 0.002zM30.853 23.499v0.485h-0.201v-1.294h0.448c0.004-0 0.010-0 0.015-0 0.084 0 0.165 0.010 0.242 0.030l-0.007-0.001c0.067 0.016 0.127 0.044 0.178 0.082l-0.001-0.001c0.043 0.033 0.077 0.076 0.099 0.125l0.001 0.002c0.022 0.046 0.034 0.101 0.034 0.158 0 0.003-0 0.006-0 0.008v-0c0 0.002 0 0.004 0 0.006 0 0.118-0.057 0.223-0.144 0.289l-0.001 0.001c-0.051 0.038-0.11 0.067-0.174 0.085l-0.004 0.001c-0.069 0.019-0.148 0.030-0.23 0.030-0.004 0-0.009-0-0.013-0h0.001l-0.243-0.003zM30.853 23.36h0.243c0.003 0 0.006 0 0.009 0 0.052 0 0.103-0.007 0.151-0.021l-0.004 0.001c0.043-0.012 0.080-0.032 0.113-0.057l-0.001 0.001c0.056-0.046 0.092-0.115 0.092-0.192 0-0.001 0-0.002-0-0.003v0c0.002-0.036-0.005-0.072-0.020-0.105s-0.040-0.064-0.070-0.088c-0.067-0.044-0.149-0.070-0.237-0.070-0.012 0-0.023 0-0.034 0.001l0.002-0h-0.243v0.533zM33.551 23.986h-0.159c-0.001 0-0.001 0-0.002 0-0.016 0-0.030-0.004-0.042-0.012l0 0c-0.011-0.008-0.020-0.018-0.026-0.030l-0-0-0.136-0.313h-0.686l-0.142 0.313c-0.006 0.012-0.014 0.022-0.025 0.029l-0 0c-0.012 0.008-0.027 0.013-0.043 0.013-0.001 0-0.001 0-0.002-0h-0.159l0.602-1.296h0.209l0.61 1.296zM32.557 23.505h0.566l-0.239-0.527c-0.016-0.033-0.031-0.074-0.043-0.116l-0.002-0.006-0.023 0.068c-0.007 0.021-0.015 0.039-0.022 0.055l-0.237 0.527zM34.418 22.696c0.012 0.006 0.022 0.014 0.030 0.023l0 0 0.878 0.977v-1.006h0.18v1.296h-0.1c-0.014 0-0.028-0.002-0.041-0.008s-0.023-0.014-0.032-0.024l-0.877-0.976v1.008h-0.18v-1.296h0.106c0.012 0 0.025 0.002 0.036 0.006zM36.985 23.47v0.515h-0.201v-0.515l-0.555-0.78h0.18c0.002-0 0.003-0 0.005-0 0.014 0 0.027 0.004 0.038 0.011l-0-0c0.011 0.008 0.020 0.018 0.027 0.029l0.347 0.503c0.022 0.033 0.043 0.071 0.059 0.111l0.002 0.004 0.026-0.056c0.011-0.023 0.023-0.042 0.035-0.061l-0.001 0.002 0.343-0.507c0.008-0.010 0.016-0.019 0.026-0.027l0-0c0.011-0.008 0.025-0.013 0.039-0.013 0.001 0 0.002 0 0.004 0h0.182l-0.556 0.784zM28.823 20.515c0.087 0.009 0.176 0.017 0.265 0.024 1.354-0.518 2.5-1.365 3.294-2.436s1.201-2.318 1.17-3.585l-1.493-1.275c0.303 1.349 0.162 2.744-0.41 4.029s-1.55 2.408-2.826 3.244z"></path>
<path fill="#8e8f99" d="M28.29 20.456l0.040 0.007c1.364-0.833 2.403-1.997 2.984-3.341s0.677-2.805 0.276-4.196l-2.126-1.816c0.86 1.493 1.206 3.164 0.998 4.818s-0.961 3.225-2.172 4.528zM35.5 16.015c-0.361 1.393-1.238 2.648-2.501 3.581-0.344 0.258-0.733 0.5-1.142 0.708l-0.046 0.021c1.028-0.258 1.974-0.715 2.763-1.335s1.401-1.386 1.789-2.24l-0.862-0.736z"></path>
<path fill="#8e8f99" d="M35.162 15.81l-1.228-1.049c-0.023 1.196-0.421 2.364-1.152 3.384s-1.768 1.854-3.004 2.416h0.006c0.275 0 0.551-0.014 0.824-0.042 1.155-0.403 2.175-1.044 2.97-1.865s1.339-1.799 1.584-2.844zM28.468 10.344l-1.465-1.253c-1.309 0.432-2.435 1.192-3.231 2.18s-1.223 2.158-1.227 3.357c0.005 1.325 0.527 2.611 1.483 3.654s2.293 1.784 3.797 2.105c1.343-1.398 2.13-3.126 2.245-4.932s-0.446-3.597-1.604-5.111zM38.545 15.617c-0.005-1.572-0.739-3.079-2.040-4.19s-3.064-1.738-4.904-1.743c-0.005 0-0.011-0-0.017-0-0.883 0-1.732 0.145-2.524 0.411l0.056-0.016 8.967 7.661c0.292-0.623 0.463-1.353 0.464-2.123v-0.001z"></path>
</svg>
