<!-- Generated by IcoMoon.io -->
<svg version="1.1" xmlns="http://www.w3.org/2000/svg" width="61" height="32" viewBox="0 0 61 32">
<title>iconssix</title>
<path fill="#8e8f99" d="M31.102 15.798c-0.139-0.178-0.222-0.405-0.222-0.652 0-0.025 0.001-0.050 0.003-0.075l-0 0.003v-1.050c0-0.322 0.073-0.567 0.219-0.734s0.397-0.251 0.753-0.25c0.334 0 0.572 0.071 0.712 0.214 0.132 0.151 0.212 0.35 0.212 0.568 0 0.021-0.001 0.042-0.002 0.063l0-0.003v0.247h-0.598v-0.25c0-0.009 0-0.020 0-0.030 0-0.076-0.006-0.15-0.018-0.223l0.001 0.008c-0.011-0.059-0.041-0.109-0.085-0.145l-0-0c-0.054-0.036-0.12-0.058-0.192-0.058-0.009 0-0.018 0-0.026 0.001l0.001-0c-0.008-0.001-0.016-0.001-0.025-0.001-0.076 0-0.146 0.023-0.204 0.062l0.001-0.001c-0.049 0.040-0.085 0.095-0.099 0.158l-0 0.002c-0.015 0.074-0.024 0.159-0.024 0.246 0 0.005 0 0.010 0 0.015v-0.001 1.275c-0.001 0.014-0.002 0.030-0.002 0.047 0 0.114 0.029 0.221 0.080 0.314l-0.002-0.003c0.030 0.038 0.071 0.068 0.119 0.087s0.102 0.026 0.154 0.020c0.008 0.001 0.016 0.001 0.025 0.001 0.070 0 0.135-0.022 0.188-0.060l-0.001 0.001c0.046-0.038 0.078-0.092 0.089-0.153l0-0.002c0.014-0.085 0.020-0.17 0.019-0.255v-0.259h0.598v0.236c0.001 0.019 0.002 0.041 0.002 0.063 0 0.227-0.079 0.435-0.211 0.599l0.001-0.002c-0.137 0.156-0.371 0.234-0.716 0.234s-0.604-0.083-0.752-0.256zM33.591 15.808c-0.151-0.163-0.227-0.402-0.227-0.717v-1.105c0-0.312 0.076-0.548 0.227-0.708s0.404-0.24 0.758-0.239c0.352 0 0.603 0.080 0.754 0.239s0.228 0.396 0.228 0.708v1.105c0 0.312-0.077 0.551-0.23 0.716s-0.404 0.247-0.752 0.247-0.605-0.083-0.758-0.246zM34.628 15.543c0.046-0.084 0.073-0.185 0.073-0.291 0-0.013-0-0.025-0.001-0.037l0 0.002v-1.353c0.001-0.011 0.001-0.024 0.001-0.037 0-0.104-0.027-0.202-0.074-0.288l0.002 0.003c-0.030-0.039-0.073-0.069-0.122-0.088s-0.104-0.025-0.158-0.019c-0.054-0.006-0.108 0-0.158 0.019s-0.092 0.049-0.123 0.088c-0.046 0.082-0.073 0.181-0.073 0.285 0 0.012 0 0.024 0.001 0.037l-0-0.002v1.359c-0.001 0.012-0.001 0.026-0.001 0.040 0 0.105 0.027 0.204 0.075 0.29l-0.002-0.003c0.035 0.034 0.078 0.062 0.126 0.081 0.046 0.018 0.099 0.029 0.154 0.029s0.108-0.011 0.157-0.030l-0.003 0.001c0.049-0.020 0.091-0.047 0.126-0.081l-0 0v-0.006zM36.050 13.071h0.644l0.484 2.038 0.495-2.038h0.627l0.063 2.942h-0.463l-0.049-2.045-0.478 2.045h-0.371l-0.495-2.052-0.046 2.052h-0.468l0.058-2.942zM39.085 13.071h1.003c0.578 0 0.867 0.278 0.867 0.835 0 0.533-0.304 0.8-0.912 0.799h-0.342v1.308h-0.619l0.004-2.942zM39.941 14.329c0.061 0.007 0.123 0.002 0.182-0.014s0.113-0.043 0.158-0.079c0.057-0.077 0.092-0.174 0.092-0.28 0-0.018-0.001-0.037-0.003-0.055l0 0.002c0-0.009 0.001-0.020 0.001-0.031 0-0.084-0.011-0.165-0.031-0.243l0.001 0.007c-0.009-0.029-0.024-0.057-0.046-0.081s-0.048-0.044-0.078-0.059c-0.071-0.030-0.154-0.048-0.241-0.048-0.012 0-0.024 0-0.036 0.001l0.002-0h-0.24v0.879h0.24zM41.847 13.071h0.665l0.682 2.942h-0.577l-0.135-0.678h-0.593l-0.139 0.678h-0.585l0.682-2.942zM42.415 14.994l-0.231-1.235-0.232 1.235h0.463zM43.745 13.071h0.433l0.829 1.678v-1.678h0.514v2.942h-0.412l-0.835-1.752v1.752h-0.531l0.001-2.942zM46.725 14.892l-0.689-1.816h0.581l0.421 1.167 0.395-1.167h0.568l-0.681 1.816v1.122h-0.594v-1.122zM32.057 17.299v0.154h-0.505v1.195h-0.212v-1.195h-0.508v-0.154h1.224zM33.641 18.649h-0.163c-0.001 0-0.003 0-0.004 0-0.016 0-0.030-0.005-0.042-0.013l0 0c-0.012-0.008-0.021-0.018-0.027-0.031l-0-0-0.146-0.32h-0.701l-0.146 0.32c-0.005 0.014-0.012 0.026-0.022 0.036v0c-0.012 0.008-0.026 0.013-0.042 0.013-0.002 0-0.003-0-0.004-0h-0.163l0.619-1.349h0.215l0.626 1.344zM32.616 18.148h0.584l-0.248-0.549c-0.016-0.034-0.031-0.076-0.044-0.12l-0.002-0.007-0.023 0.072-0.022 0.057-0.245 0.548zM34.708 18.516c0.018 0.002 0.038 0.003 0.059 0.003 0.055 0 0.109-0.007 0.16-0.020l-0.005 0.001c0.065-0.013 0.122-0.033 0.176-0.060l-0.004 0.002v-0.303h-0.248c-0.006 0-0.012 0-0.018-0.002s-0.011-0.005-0.015-0.008-0.007-0.007-0.009-0.011-0.003-0.009-0.003-0.014v-0.104h0.48v0.517c-0.075 0.047-0.162 0.085-0.255 0.109l-0.006 0.001c-0.043 0.012-0.096 0.021-0.15 0.028l-0.005 0c-0.060 0.006-0.12 0.009-0.181 0.009-0.003 0-0.007 0-0.010 0-0.108 0-0.212-0.018-0.309-0.052l0.007 0.002c-0.096-0.033-0.178-0.081-0.249-0.142l0.001 0.001c-0.066-0.059-0.12-0.13-0.158-0.21l-0.002-0.004c-0.036-0.080-0.057-0.174-0.057-0.272 0-0.003 0-0.005 0-0.008v0c-0-0.007-0-0.015-0-0.023 0-0.188 0.084-0.357 0.216-0.472l0.001-0.001c0.070-0.060 0.152-0.108 0.243-0.138l0.005-0.002c0.096-0.032 0.207-0.050 0.322-0.050 0.004 0 0.007 0 0.011 0h-0.001c0.058 0 0.115 0.004 0.172 0.012 0.145 0.020 0.273 0.076 0.381 0.158l-0.002-0.001-0.059 0.083c-0.005 0.008-0.012 0.014-0.020 0.018s-0.018 0.007-0.028 0.007c-0 0-0 0-0 0-0.014 0-0.027-0.004-0.038-0.011l0 0c-0.026-0.012-0.046-0.023-0.065-0.034l0.004 0.002c-0.096-0.049-0.21-0.078-0.33-0.078-0.008 0-0.017 0-0.025 0l0.001-0c-0.002-0-0.005-0-0.008-0-0.083 0-0.162 0.014-0.236 0.039l0.005-0.002c-0.135 0.045-0.242 0.145-0.296 0.272l-0.001 0.003c-0.026 0.067-0.041 0.144-0.041 0.225s0.015 0.158 0.043 0.229l-0.001-0.004c0.061 0.129 0.169 0.228 0.301 0.276l0.004 0.001c0.060 0.018 0.129 0.028 0.2 0.028 0.016 0 0.031-0 0.047-0.002l-0.002 0zM36.681 18.495h0.676v0.154h-0.883v-1.349h0.212l-0.005 1.195zM38.061 18.649h-0.212v-1.349h0.212v1.349zM38.848 17.306c0.012 0.007 0.023 0.015 0.032 0.025l0 0 0.905 1.017c-0-0.007-0.001-0.016-0.001-0.024s0-0.017 0.001-0.025l-0 0.001v-1.006h0.184v1.355h-0.107c-0.002 0-0.004 0-0.006 0-0.014 0-0.028-0.003-0.041-0.008l0.001 0c-0.013-0.007-0.024-0.015-0.033-0.026l-0-0-0.904-1.016v1.050h-0.177v-1.349h0.11c0.012 0 0.024 0.002 0.035 0.006zM41.529 17.299v0.148h-0.751v0.445h0.608v0.143h-0.608v0.46h0.751v0.148h-0.968v-1.346h0.968zM19.344 8.967l9.401 2.303v8.071l-9.401-2.302v-8.072zM18.741 8.279v9.152l10.605 2.599v-9.151l-10.605-2.6z"></path>
<path fill="#8e8f99" d="M24.425 24.279l-10.607-2.601v-9.151l10.607 2.6v9.152zM18.917 8.863l9.278 2.274-3.946 3.406-9.279-2.276 3.947-3.405zM18.741 8.279l-4.923 4.248 10.607 2.6 4.921-4.248-10.605-2.6zM25.021 23.764l4.325-3.733-4.325-1.061v4.793z"></path>
</svg>
