<!-- Generated by IcoMoon.io -->
<svg version="1.1" xmlns="http://www.w3.org/2000/svg" width="61" height="32" viewBox="0 0 61 32">
<title>iconsfour</title>
<path fill="#8e8f99" d="M20.392 13.643h-0.001c-0.867 0-1.571 0.634-1.571 1.416v0.001c0 0.782 0.703 1.416 1.571 1.416h0.001c0.867 0 1.571-0.634 1.571-1.416v-0.001c0-0.782-0.703-1.416-1.571-1.416zM31.986 13.19c-0.002-1.086-0.482-2.128-1.334-2.896s-2.007-1.201-3.212-1.203c-1.205 0.002-2.361 0.434-3.213 1.203s-1.332 1.81-1.335 2.896v5.991s9.092-0.913 9.093-5.99v-0.001zM15.636 21.147c0.002 0.756 0.336 1.48 0.929 2.015s1.396 0.836 2.234 0.838c0.838-0.002 1.641-0.303 2.234-0.838s0.927-1.259 0.929-2.014v-4.168s-6.327 0.636-6.327 4.167zM18.8 21.894c-0.164 0-0.324-0.044-0.46-0.126s-0.242-0.199-0.305-0.335-0.079-0.287-0.047-0.432c0.032-0.145 0.111-0.278 0.227-0.382s0.263-0.176 0.424-0.204c0.161-0.029 0.327-0.014 0.479 0.043s0.281 0.152 0.372 0.275c0.087 0.115 0.14 0.261 0.14 0.418 0 0.21-0.093 0.398-0.24 0.526l-0.001 0.001c-0.077 0.070-0.168 0.125-0.269 0.163s-0.209 0.057-0.318 0.057v-0.003zM24.585 20.551v1.551h-0.32v-1.551h0.32zM25.203 21.214v0.249h-0.705v-0.249h0.705zM25.278 20.551v0.25h-0.78v-0.25h0.78zM26.737 21.29v0.074c0 0.118-0.016 0.224-0.048 0.317s-0.077 0.174-0.135 0.24c-0.058 0.065-0.128 0.115-0.209 0.15s-0.169 0.052-0.267 0.052c-0.097 0-0.186-0.017-0.267-0.052s-0.15-0.085-0.209-0.15c-0.059-0.066-0.105-0.146-0.137-0.24s-0.048-0.2-0.048-0.317v-0.074c0-0.119 0.016-0.224 0.048-0.317s0.077-0.174 0.135-0.24c0.059-0.066 0.129-0.116 0.209-0.151s0.17-0.052 0.267-0.052c0.098 0 0.187 0.017 0.267 0.052s0.151 0.085 0.209 0.151c0.059 0.066 0.104 0.146 0.136 0.24s0.049 0.199 0.049 0.317zM26.414 21.364v-0.076c0-0.082-0.007-0.155-0.022-0.217s-0.037-0.115-0.066-0.158-0.065-0.075-0.107-0.096c-0.042-0.022-0.090-0.033-0.144-0.033s-0.102 0.011-0.144 0.033c-0.041 0.021-0.076 0.053-0.105 0.096s-0.050 0.095-0.065 0.158c-0.014 0.061-0.022 0.131-0.022 0.203 0 0.005 0 0.010 0 0.015v-0.001 0.076c0 0.082 0.007 0.154 0.022 0.217s0.037 0.115 0.066 0.159c0.053 0.079 0.141 0.13 0.242 0.13 0.003 0 0.006-0 0.009-0h-0c0.004 0 0.009 0 0.013 0 0.099 0 0.186-0.052 0.235-0.129l0.001-0.001c0.028-0.043 0.050-0.096 0.065-0.159s0.022-0.136 0.022-0.217zM27.775 21.696c0-0.028-0.004-0.053-0.013-0.075s-0.023-0.043-0.045-0.062c-0.022-0.019-0.053-0.038-0.093-0.056s-0.091-0.038-0.154-0.058c-0.070-0.023-0.137-0.048-0.2-0.077s-0.118-0.061-0.166-0.099c-0.048-0.038-0.085-0.083-0.113-0.133s-0.040-0.109-0.040-0.176c0-0.065 0.014-0.123 0.043-0.176s0.068-0.099 0.119-0.136c0.051-0.038 0.111-0.068 0.181-0.088s0.147-0.031 0.231-0.031c0.114 0 0.214 0.021 0.299 0.062s0.151 0.098 0.198 0.169c0.045 0.067 0.071 0.149 0.071 0.238 0 0.003-0 0.006-0 0.009v-0h-0.317c0-0.045-0.010-0.085-0.029-0.119s-0.047-0.062-0.085-0.082c-0.039-0.019-0.084-0.030-0.132-0.030-0.004 0-0.008 0-0.012 0l0.001-0c-0.055 0-0.102 0.009-0.138 0.026s-0.065 0.039-0.083 0.067c-0.018 0.026-0.028 0.059-0.028 0.093 0 0 0 0 0 0.001v-0c0 0.026 0.006 0.050 0.019 0.071s0.033 0.041 0.060 0.060 0.059 0.036 0.097 0.052c0.038 0.016 0.083 0.032 0.133 0.048 0.084 0.026 0.159 0.054 0.223 0.086s0.119 0.068 0.162 0.108c0.043 0.040 0.076 0.085 0.098 0.135s0.033 0.108 0.033 0.172c0 0.005 0 0.011 0 0.017 0 0.123-0.060 0.231-0.152 0.298l-0.001 0.001c-0.050 0.037-0.109 0.065-0.178 0.084s-0.146 0.030-0.227 0.030c-0.082 0-0.162-0.011-0.237-0.033l0.006 0.001c-0.077-0.021-0.145-0.053-0.205-0.094l0.002 0.001c-0.060-0.041-0.109-0.094-0.145-0.158s-0.054-0.14-0.054-0.227h0.321c0 0.048 0.007 0.089 0.022 0.122s0.036 0.060 0.063 0.081c0.028 0.021 0.060 0.035 0.098 0.045 0.034 0.009 0.074 0.013 0.115 0.013 0.053 0 0.103-0.008 0.151-0.023l-0.003 0.001c0.063-0.025 0.107-0.086 0.107-0.157 0-0.001 0-0.001 0-0.002v0zM29.005 20.551v1.551h-0.319v-1.551h0.319zM29.482 20.551v0.25h-1.266v-0.25h1.266zM30.705 21.853v0.249h-0.826v-0.249h0.826zM29.984 20.551v1.551h-0.32v-1.551h0.32zM30.598 21.183v0.243h-0.718v-0.243h0.718zM30.704 20.551v0.25h-0.825v-0.25h0.825zM30.892 20.551h0.578c0.119 0 0.221 0.018 0.306 0.053s0.152 0.088 0.198 0.158 0.069 0.155 0.069 0.257c0 0.083-0.014 0.154-0.043 0.214s-0.067 0.108-0.118 0.148c-0.051 0.039-0.11 0.071-0.174 0.093l-0.004 0.001-0.101 0.053h-0.503l-0.002-0.249h0.374c0.056 0 0.103-0.010 0.14-0.030s0.065-0.048 0.083-0.083c0.018-0.035 0.029-0.075 0.029-0.119 0-0.002-0-0.004-0-0.005v0c0-0.050-0.009-0.093-0.028-0.129s-0.047-0.064-0.084-0.083-0.085-0.029-0.142-0.029h-0.259v1.301h-0.32v-1.551zM31.759 22.102l-0.354-0.691 0.338-0.002 0.358 0.679v0.015h-0.342zM33.437 21.549h-0.395v-0.249h0.395c0.061 0 0.111-0.010 0.149-0.030s0.066-0.049 0.084-0.085c0.017-0.037 0.026-0.080 0.026-0.125s-0.010-0.089-0.027-0.128l0.001 0.002c-0.018-0.040-0.046-0.072-0.084-0.096s-0.088-0.036-0.149-0.036h-0.284v1.301h-0.32v-1.551h0.604c0.121 0 0.225 0.022 0.312 0.066 0.161 0.078 0.269 0.24 0.269 0.427 0 0.005-0 0.011-0 0.016l0-0.001c0 0.1-0.023 0.187-0.069 0.26s-0.113 0.13-0.2 0.169c-0.086 0.038-0.187 0.060-0.293 0.060-0.007 0-0.013-0-0.020-0l0.001 0zM35.28 21.853v0.249h-0.826v-0.249h0.826zM34.559 20.551v1.551h-0.32v-1.551h0.32zM35.172 21.183v0.243h-0.718v-0.243h0.718zM35.279 20.551v0.25h-0.825v-0.25h0.825zM36.181 20.551v1.551h-0.319v-1.551h0.319zM36.659 20.551v0.25h-1.266v-0.25h1.266zM37.881 21.853v0.249h-0.825v-0.249h0.825zM37.16 20.551v1.551h-0.32v-1.551h0.32zM37.774 21.183v0.243h-0.718v-0.243h0.718zM37.88 20.551v0.25h-0.824v-0.25h0.824zM38.068 20.551h0.579c0.119 0 0.22 0.018 0.306 0.053s0.152 0.088 0.198 0.158 0.069 0.155 0.069 0.257c0 0.083-0.014 0.154-0.043 0.214s-0.067 0.108-0.118 0.148c-0.051 0.039-0.11 0.070-0.173 0.093l-0.005 0.001-0.101 0.053h-0.503l-0.002-0.249h0.374c0.056 0 0.103-0.010 0.139-0.030s0.065-0.048 0.083-0.083c0.018-0.035 0.029-0.075 0.029-0.119 0-0.002-0-0.004-0-0.005v0c0-0.050-0.009-0.093-0.028-0.129s-0.047-0.064-0.084-0.083c-0.038-0.018-0.084-0.029-0.131-0.029-0.003 0-0.007 0-0.010 0h-0.258v1.301h-0.32v-1.551zM38.935 22.102l-0.354-0.691 0.338-0.002 0.358 0.679v0.015h-0.342zM40.273 21.696c0-0.001 0-0.003 0-0.005 0-0.025-0.005-0.050-0.014-0.072l0 0.001c-0.008-0.023-0.023-0.043-0.045-0.062s-0.053-0.038-0.093-0.056c-0.041-0.019-0.092-0.038-0.144-0.055l-0.010-0.003c-0.071-0.023-0.137-0.048-0.2-0.077s-0.118-0.061-0.166-0.099c-0.048-0.038-0.085-0.083-0.113-0.133s-0.040-0.109-0.040-0.176c0-0.065 0.014-0.123 0.043-0.176s0.068-0.099 0.119-0.136c0.052-0.038 0.112-0.068 0.177-0.087l0.004-0.001c0.066-0.019 0.142-0.030 0.22-0.030 0.112 0 0.218 0.023 0.315 0.063l-0.005-0.002c0.081 0.038 0.148 0.096 0.197 0.167l0.001 0.002c0.045 0.067 0.071 0.149 0.071 0.238 0 0.003-0 0.006-0 0.009v-0h-0.317c0-0.002 0-0.005 0-0.007 0-0.041-0.011-0.080-0.030-0.113l0.001 0.001c-0.018-0.035-0.047-0.062-0.085-0.082s-0.085-0.030-0.143-0.030c-0.055 0-0.101 0.009-0.139 0.026s-0.064 0.039-0.083 0.067c-0.018 0.026-0.028 0.057-0.028 0.091 0 0.001 0 0.002 0 0.003v-0c0 0.026 0.006 0.050 0.019 0.071s0.033 0.041 0.060 0.060c0.026 0.018 0.059 0.036 0.097 0.052s0.083 0.032 0.133 0.048c0.085 0.026 0.159 0.054 0.223 0.086s0.119 0.068 0.162 0.108 0.076 0.085 0.098 0.135c0.022 0.050 0.033 0.108 0.033 0.172 0 0.005 0 0.011 0 0.017 0 0.123-0.060 0.231-0.152 0.298l-0.001 0.001c-0.049 0.037-0.109 0.065-0.178 0.084s-0.146 0.030-0.227 0.030c-0.082 0-0.162-0.011-0.237-0.033l0.006 0.001c-0.077-0.021-0.145-0.053-0.205-0.094l0.002 0.001c-0.060-0.041-0.109-0.094-0.145-0.158s-0.054-0.14-0.054-0.227h0.321c0 0.048 0.007 0.089 0.022 0.122s0.036 0.060 0.063 0.081c0.028 0.021 0.060 0.035 0.098 0.045 0.034 0.009 0.074 0.013 0.114 0.013 0.052 0 0.103-0.008 0.15-0.023l-0.004 0.001c0.063-0.026 0.107-0.087 0.107-0.158 0-0 0-0.001 0-0.001v0z"></path>
</svg>
