<!-- Generated by IcoMoon.io -->
<svg version="1.1" xmlns="http://www.w3.org/2000/svg" width="61" height="32" viewBox="0 0 61 32">
<title>iconsfive</title>
<path fill="#8e8f99" d="M21.379 21.954c0.083 0.090 0.134 0.211 0.134 0.344 0 0.003-0 0.005-0 0.008v-0c0.005 0.083-0.012 0.167-0.048 0.244s-0.091 0.146-0.16 0.201c-0.151 0.103-0.338 0.164-0.539 0.164-0.023 0-0.046-0.001-0.069-0.002l0.003 0h-1.064v-2.23h1.042c0.206-0.012 0.41 0.040 0.577 0.148 0.067 0.051 0.121 0.115 0.156 0.187s0.051 0.151 0.046 0.23c0 0.006 0 0.013 0 0.020 0 0.123-0.046 0.236-0.122 0.321l0-0c-0.082 0.088-0.191 0.15-0.313 0.173l-0.004 0.001c0.143 0.023 0.267 0.092 0.359 0.191l0 0zM20.131 21.617h0.445c0.010 0.001 0.021 0.001 0.032 0.001 0.093 0 0.18-0.028 0.253-0.076l-0.002 0.001c0.033-0.027 0.059-0.061 0.076-0.099s0.023-0.078 0.020-0.119c0-0.005 0.001-0.012 0.001-0.018 0-0.080-0.037-0.152-0.094-0.199l-0-0c-0.072-0.048-0.16-0.076-0.255-0.076-0.013 0-0.026 0.001-0.038 0.002l0.002-0h-0.438v0.585zM20.903 22.472c0.036-0.028 0.064-0.063 0.082-0.102s0.026-0.082 0.023-0.124c0.003-0.043-0.006-0.086-0.024-0.126s-0.047-0.075-0.083-0.103c-0.077-0.051-0.172-0.082-0.273-0.082-0.010 0-0.020 0-0.030 0.001l0.001-0h-0.467v0.613h0.473c0.009 0.001 0.019 0.001 0.029 0.001 0.1 0 0.194-0.029 0.272-0.079l-0.002 0.001zM23.509 22.912l-0.58-0.872h-0.218v0.872h-0.499v-2.23h0.944c0.020-0.001 0.044-0.002 0.068-0.002 0.221 0 0.426 0.072 0.592 0.194l-0.003-0.002c0.132 0.121 0.212 0.28 0.224 0.45s-0.042 0.337-0.154 0.473c-0.118 0.119-0.273 0.2-0.446 0.226l-0.004 0.001 0.617 0.891h-0.542zM22.711 21.737h0.408c0.283 0 0.425-0.113 0.425-0.338 0.003-0.046-0.005-0.092-0.023-0.135s-0.046-0.082-0.081-0.115c-0.078-0.057-0.175-0.092-0.281-0.092-0.014 0-0.028 0.001-0.042 0.002l0.002-0h-0.413l0.005 0.679zM26.234 22.464h-0.994l-0.175 0.449h-0.523l0.912-2.205h0.565l0.909 2.205h-0.523l-0.172-0.449zM26.101 22.126l-0.363-0.941-0.363 0.941h0.726zM29.645 22.913h-0.495l-1.11-1.516v1.516h-0.494v-2.23h0.494l1.11 1.525v-1.525h0.495v2.23zM32.469 22.379c-0.108 0.172-0.26 0.307-0.442 0.39l-0.006 0.003c-0.193 0.089-0.42 0.141-0.658 0.141-0.013 0-0.027-0-0.040-0l0.002 0h-0.881v-2.23h0.881c0.241-0.006 0.48 0.041 0.696 0.137 0.189 0.086 0.346 0.222 0.448 0.389 0.097 0.168 0.154 0.37 0.154 0.585s-0.057 0.417-0.157 0.591l0.003-0.006zM31.903 22.325c0.141-0.148 0.219-0.337 0.219-0.532s-0.078-0.384-0.219-0.532c-0.155-0.12-0.351-0.192-0.565-0.192-0.019 0-0.039 0.001-0.058 0.002l0.003-0h-0.344v1.443h0.344c0.017 0.001 0.038 0.002 0.058 0.002 0.213 0 0.408-0.072 0.564-0.193l-0.002 0.002zM26.543 8.279s6.388 2.171 6.252 5.313v5.314s-6.383-2.172-6.25-5.314l-0.002-5.313zM38.487 17.662c1.16-0.723 2.541-1.205 4.022-1.343l0.037-0.003v-1.663c-1.679 0.582-3.102 1.638-4.059 3.010z"></path>
<path fill="#8e8f99" d="M37.762 18.163c0.987-1.79 2.699-3.171 4.783-3.86v-4.793s-9.097 3.093-8.905 7.567v7.566s0.405-0.138 1.043-0.398c0-0.242 0-0.486 0.029-0.731 0.188-2.077 1.285-4.002 3.050-5.351z"></path>
<path fill="#8e8f99" d="M36.897 20.973c0.054-0.572 0.166-1.098 0.334-1.599l-0.014 0.050c-1.099 1.165-1.764 2.611-1.902 4.134-0.012 0.125-0.021 0.277-0.024 0.43l-0 0.006c0.761-0.327 1.336-0.605 1.899-0.902l-0.149 0.072c-0.109-0.465-0.171-0.999-0.171-1.548 0-0.226 0.011-0.45 0.031-0.671l-0.002 0.028zM37.259 21.001c-0.060 0.663-0.023 1.33 0.113 1.984 2.485-1.339 5.278-3.408 5.171-5.908v-0.218c-1.776 0.179-3.437 0.878-4.729 1.989-0.285 0.629-0.481 1.359-0.552 2.126l-0.002 0.027z"></path>
</svg>
