<!-- Generated by IcoMoon.io -->
<svg version="1.1" xmlns="http://www.w3.org/2000/svg" width="61" height="32" viewBox="0 0 61 32">
<title>iconstwo</title>
<path fill="#8e8f99" d="M29.86 7.976c0.084 0 0.174 0.008 0.263 0.015l0.026 0.002c0.477 0.035 0.918 0.104 1.345 0.205l-0.057-0.011v-1.041c-0.385-0.101-0.838-0.176-1.303-0.21l-0.026-0.002c-0.149-0.012-0.335-0.021-0.523-0.026l-0.014-0h-0.155c-0.9 0.003-1.796 0.119-2.668 0.344-0.993 0.248-1.946 0.635-2.831 1.151v10.326c0.775-0.431 1.673-0.791 2.618-1.034l0.080-0.017c0.742-0.189 1.5-0.306 2.265-0.348h0.030c0.111-0.006 0.247-0.010 0.382-0.011l0.005-0v-1.058c-0.993 0.013-1.981 0.144-2.944 0.391-0.356 0.092-0.7 0.192-1.023 0.303l-0.368 0.125v-8.051l0.157-0.076c1.127-0.546 2.442-0.898 3.83-0.975l0.027-0.001c0.146-0.007 0.293-0.011 0.438-0.011h0.166c0.076 0.002 0.153 0.004 0.229 0.008h0.050zM31.692 9.040c0.231 0.018 0.47 0.026 0.712 0.026 0.998-0.003 1.964-0.134 2.885-0.378l-0.080 0.018c0.939-0.236 1.846-0.59 2.697-1.052v10.142c-0.885 0.516-1.838 0.903-2.831 1.151-0.872 0.224-1.768 0.339-2.668 0.343-0.020 0-0.044 0-0.067 0-0.695 0-1.369-0.087-2.013-0.251l0.056 0.012v-10.208c0.377 0.091 0.824 0.161 1.281 0.194l0.028 0.002zM36.853 9.119l-0.368 0.124c-0.338 0.114-0.68 0.215-1.023 0.306-0.999 0.257-2.026 0.388-3.057 0.392-0.24 0-0.461-0.006-0.674-0.020l-0.293-0.019v8.283l0.252 0.022c0.234 0.020 0.475 0.030 0.718 0.030 0.857-0.003 1.686-0.117 2.475-0.327l-0.068 0.015c0.721-0.183 1.347-0.414 1.941-0.702l-0.060 0.026 0.157-0.076v-8.054zM24.632 22.259c-0.098-0.102-0.235-0.165-0.388-0.165-0.008 0-0.015 0-0.022 0l0.001-0c-0.002-0-0.005-0-0.008-0-0.082 0-0.161 0.016-0.232 0.046l0.004-0.001c-0.14 0.055-0.249 0.165-0.302 0.302l-0.001 0.004c-0.027 0.065-0.042 0.141-0.042 0.22 0 0.003 0 0.006 0 0.009v-0 1.38c-0 0.006-0 0.014-0 0.022 0 0.095 0.020 0.184 0.056 0.265l-0.002-0.004c0.060 0.14 0.179 0.244 0.325 0.282l0.003 0.001c0.062 0.018 0.132 0.028 0.206 0.029h0c0.315-0.008 0.568-0.265 0.571-0.581v-0.154h-0.361v0.123c0 0.002 0 0.005 0 0.008 0 0.041-0.008 0.081-0.022 0.117l0.001-0.002c-0.013 0.030-0.030 0.056-0.052 0.078v0c-0.021 0.017-0.046 0.031-0.073 0.040l-0.002 0c-0.022 0.007-0.048 0.012-0.075 0.013h-0c-0.007 0.001-0.014 0.001-0.022 0.001-0.061 0-0.114-0.029-0.148-0.075l-0-0c-0.030-0.049-0.048-0.107-0.048-0.171 0-0.005 0-0.010 0-0.015l-0 0.001v-1.286c-0-0.004-0-0.008-0-0.013 0-0.070 0.016-0.137 0.045-0.196l-0.001 0.003c0.033-0.051 0.089-0.084 0.153-0.084 0.008 0 0.016 0.001 0.024 0.002l-0.001-0c0.031-0.001 0.062 0.005 0.090 0.019s0.052 0.034 0.071 0.059c0.037 0.050 0.060 0.112 0.060 0.18 0 0.002 0 0.003-0 0.005v-0 0.119h0.357v-0.141c0-0.002 0-0.005 0-0.007 0-0.165-0.062-0.315-0.165-0.428l0 0.001zM26.774 22.243c-0.11-0.093-0.253-0.151-0.41-0.152h-0c-0.001 0-0.001 0-0.002 0-0.155 0-0.296 0.058-0.404 0.153l0.001-0.001c-0.119 0.107-0.193 0.261-0.193 0.432 0 0.010 0 0.020 0.001 0.030l-0-0.001v1.323c-0 0.005-0 0.011-0 0.017 0 0.092 0.019 0.179 0.054 0.258l-0.002-0.004c0.034 0.073 0.081 0.135 0.139 0.184l0.001 0.001c0.055 0.051 0.12 0.091 0.19 0.117 0.069 0.025 0.142 0.038 0.215 0.039s0.146-0.013 0.215-0.039c0.225-0.078 0.384-0.288 0.384-0.536 0-0.013-0-0.026-0.001-0.039l0 0.002v-1.323c0-0.004 0-0.009 0-0.014 0-0.092-0.019-0.179-0.054-0.258l0.002 0.004c-0.033-0.076-0.079-0.14-0.136-0.193l-0-0zM26.606 24.027c0.001 0.007 0.001 0.015 0.001 0.023 0 0.067-0.028 0.127-0.073 0.169l-0 0c-0.046 0.038-0.105 0.061-0.17 0.061s-0.124-0.023-0.17-0.062l0 0c-0.045-0.044-0.073-0.105-0.073-0.173 0-0.007 0-0.014 0.001-0.020l-0 0.001v-1.323c-0.001-0.007-0.001-0.015-0.001-0.023 0-0.067 0.028-0.127 0.073-0.169l0-0c0.046-0.038 0.105-0.061 0.17-0.061s0.124 0.023 0.17 0.062l-0-0c0.045 0.044 0.073 0.105 0.073 0.173 0 0.007-0 0.014-0.001 0.020l0-0.001v1.323zM29.588 24.618v-2.505h-0.347l-0.455 1.326h-0.006l-0.459-1.326h-0.343v2.505h0.358v-1.524h0.006l0.35 1.077h0.178l0.353-1.077h0.006v1.524h0.358zM31.621 22.289c-0.054-0.060-0.122-0.107-0.199-0.136l-0.003-0.001c-0.074-0.025-0.16-0.039-0.249-0.039-0.003 0-0.007 0-0.010 0h-0.531v2.505h0.357v-0.978h0.184c0.009 0 0.020 0.001 0.030 0.001 0.106 0 0.207-0.025 0.296-0.070l-0.004 0.002c0.082-0.046 0.148-0.111 0.195-0.189l0.001-0.002c0.039-0.063 0.068-0.136 0.081-0.214l0.001-0.004c0.014-0.094 0.020-0.19 0.019-0.285 0-0.012 0.001-0.026 0.001-0.040 0-0.113-0.013-0.222-0.037-0.327l0.002 0.010c-0.025-0.090-0.071-0.168-0.132-0.23l0 0zM31.437 23.052c-0.002 0.048-0.014 0.092-0.034 0.132l0.001-0.002c-0.021 0.038-0.053 0.069-0.091 0.087l-0.001 0.001c-0.043 0.020-0.094 0.032-0.148 0.032-0.007 0-0.014-0-0.021-0.001l0.001 0h-0.163v-0.852h0.184c0.005-0 0.011-0 0.018-0 0.052 0 0.101 0.012 0.146 0.032l-0.002-0.001c0.037 0.022 0.066 0.053 0.083 0.091l0.001 0.001c0.020 0.044 0.030 0.091 0.031 0.14v0.166c0 0.058 0.004 0.118 0 0.172h-0.004zM33.312 22.113h-0.293l-0.552 2.505h0.357l0.105-0.538h0.487l0.105 0.538h0.357l-0.566-2.505zM32.983 23.739l0.176-0.908h0.006l0.175 0.908h-0.357zM35.618 23.622h-0.006l-0.539-1.509h-0.343v2.505h0.357v-1.506h0.007l0.545 1.506h0.336v-2.505h-0.357v1.509zM37.799 22.113l-0.287 0.996h-0.007l-0.287-0.996h-0.378l0.49 1.446v1.059h0.357v-1.059l0.49-1.446h-0.378zM23.636 25.325h0.172v0.483h0.117v-0.483h0.171v-0.099h-0.46v0.099zM25.082 25.226l-0.225 0.582h0.124l0.048-0.132h0.232l0.050 0.132h0.127l-0.231-0.582h-0.124zM25.064 25.578l0.079-0.215 0.079 0.215h-0.158zM26.512 25.593h0.134v0.075c-0.037 0.030-0.086 0.049-0.138 0.049h-0c-0.003 0-0.005 0-0.008 0-0.047 0-0.088-0.022-0.114-0.056l-0-0c-0.027-0.038-0.043-0.086-0.043-0.138 0-0.005 0-0.010 0-0.015l-0 0.001c0-0.129 0.056-0.194 0.167-0.194 0.004-0 0.008-0.001 0.013-0.001 0.058 0 0.106 0.039 0.119 0.093l0 0.001 0.115-0.022c-0.025-0.114-0.107-0.171-0.247-0.171-0.002-0-0.005-0-0.008-0-0.075 0-0.143 0.029-0.195 0.075l0-0c-0.052 0.051-0.084 0.122-0.084 0.2 0 0.008 0 0.017 0.001 0.025l-0-0.001c-0 0.004-0 0.009-0 0.014 0 0.078 0.029 0.149 0.076 0.204l-0-0c0.028 0.029 0.063 0.052 0.101 0.067s0.079 0.021 0.12 0.018c0.003 0 0.006 0 0.009 0 0.092 0 0.175-0.035 0.238-0.092l-0 0v-0.229h-0.252v0.098zM27.972 25.226h-0.118v0.582h0.407v-0.099h-0.29v-0.483zM29.206 25.226h-0.118v0.582h0.118v-0.582zM30.413 25.615l-0.238-0.388h-0.114v0.582h0.109v-0.38l0.234 0.38h0.117v-0.582h-0.108v0.388zM31.504 25.552h0.29v-0.099h-0.29v-0.128h0.312v-0.099h-0.43v0.582h0.442v-0.099h-0.324v-0.157zM34.15 25.456h-0.229v-0.229h-0.117v0.582h0.117v-0.254h0.229v0.254h0.117v-0.582h-0.117v0.229zM35.247 25.552h0.291v-0.099h-0.291v-0.128h0.313v-0.099h-0.43v0.582h0.441v-0.099h-0.324v-0.157zM36.736 25.552c0.101-0.016 0.153-0.069 0.153-0.162 0.001-0.005 0.001-0.011 0.001-0.017 0-0.047-0.023-0.088-0.058-0.113l-0-0c-0.043-0.022-0.094-0.035-0.148-0.035-0.008 0-0.015 0-0.023 0.001l0.001-0h-0.247v0.582h0.117v-0.243h0.023c0.003-0 0.007-0 0.010-0 0.023 0 0.044 0.005 0.063 0.014l-0.001-0c0.017 0.011 0.031 0.025 0.041 0.042l0 0.001 0.127 0.185h0.14l-0.071-0.114c-0.032-0.057-0.075-0.104-0.128-0.139l-0.001-0.001zM36.618 25.471h-0.086v-0.146h0.092c0.040-0.003 0.080 0.001 0.119 0.014 0.008 0.008 0.015 0.017 0.020 0.027s0.007 0.022 0.006 0.033c0 0.011-0.004 0.022-0.009 0.032s-0.013 0.019-0.022 0.025c-0.030 0.009-0.064 0.015-0.099 0.015-0.007 0-0.014-0-0.021-0.001l0.001 0zM37.858 25.552h0.289v-0.099h-0.289v-0.128h0.313v-0.099h-0.431v0.582h0.441v-0.099h-0.324v-0.157z"></path>
</svg>
