<!-- Generated by IcoMoon.io -->
<svg version="1.1" xmlns="http://www.w3.org/2000/svg" width="32" height="32" viewBox="0 0 32 32">
<title>inst</title>
<path fill="#4d5ae5" d="M32 16c0 4.418-1.791 8.418-4.686 11.314s-6.895 4.686-11.314 4.686c-4.418 0-8.418-1.791-11.314-4.686s-4.686-6.895-4.686-11.314c0-4.418 1.791-8.418 4.686-11.314s6.895-4.686 11.314-4.686c4.418 0 8.418 1.791 11.314 4.686s4.686 6.895 4.686 11.314z"></path>
<path fill="#f4f4fd" d="M25.581 12.045c-0.045-1.020-0.21-1.722-0.446-2.329-0.255-0.667-0.632-1.235-1.109-1.702l-0.001-0.001c-0.468-0.475-1.034-0.851-1.667-1.095l-0.032-0.011c-0.611-0.236-1.309-0.401-2.329-0.446-1.028-0.049-1.354-0.060-3.961-0.060s-2.933 0.011-3.957 0.056c-1.020 0.045-1.722 0.21-2.329 0.446-0.667 0.255-1.235 0.632-1.702 1.109l-0.001 0.001c-0.475 0.468-0.851 1.034-1.095 1.667l-0.011 0.032c-0.236 0.611-0.401 1.309-0.446 2.329-0.049 1.028-0.060 1.354-0.060 3.961s0.011 2.933 0.056 3.957c0.045 1.020 0.21 1.722 0.446 2.329 0.256 0.666 0.634 1.234 1.109 1.702l0.001 0.001c0.48 0.488 1.061 0.866 1.699 1.106 0.611 0.236 1.309 0.401 2.329 0.446 1.024 0.045 1.35 0.056 3.957 0.056s2.933-0.011 3.957-0.056c1.020-0.045 1.722-0.21 2.329-0.446 1.294-0.51 2.299-1.515 2.797-2.776l0.012-0.033c0.236-0.611 0.401-1.309 0.446-2.329 0.045-1.024 0.056-1.35 0.056-3.957s-0.004-2.933-0.049-3.957zM23.852 19.884c-0.041 0.938-0.199 1.444-0.33 1.782-0.331 0.84-0.983 1.492-1.801 1.815l-0.022 0.008c-0.338 0.131-0.848 0.289-1.782 0.33-1.013 0.045-1.316 0.056-3.878 0.056s-2.869-0.011-3.878-0.056c-0.938-0.041-1.444-0.199-1.782-0.33-0.432-0.162-0.801-0.406-1.102-0.715l-0.001-0.001c-0.31-0.302-0.554-0.67-0.709-1.083l-0.007-0.020c-0.131-0.338-0.289-0.848-0.33-1.782-0.045-1.013-0.056-1.317-0.056-3.878s0.011-2.869 0.056-3.878c0.041-0.938 0.199-1.444 0.33-1.782 0.154-0.416 0.398-0.795 0.72-1.103 0.302-0.31 0.67-0.554 1.083-0.709l0.020-0.007c0.338-0.131 0.848-0.289 1.782-0.33 1.013-0.045 1.317-0.056 3.878-0.056 2.566 0 2.869 0.011 3.878 0.056 0.938 0.041 1.444 0.199 1.782 0.33 0.433 0.161 0.801 0.406 1.102 0.715l0.001 0.001c0.319 0.311 0.563 0.686 0.716 1.103 0.131 0.338 0.289 0.848 0.33 1.782 0.045 1.013 0.056 1.316 0.056 3.878s-0.011 2.862-0.056 3.875z"></path>
<path fill="#f4f4fd" d="M16.036 11.070c-2.681 0.056-4.834 2.242-4.834 4.932s2.152 4.876 4.829 4.932l0.005 0c2.681-0.056 4.834-2.242 4.834-4.932s-2.152-4.876-4.828-4.932l-0.005-0zM16.036 19.201c-1.767-0.001-3.199-1.433-3.199-3.2s1.433-3.2 3.2-3.2c0 0 0.001 0 0.001 0h-0c1.767 0.001 3.199 1.433 3.199 3.2s-1.433 3.2-3.2 3.2c-0 0-0.001 0-0.001 0h0zM22.314 10.875c0 0.636-0.516 1.152-1.151 1.152s-1.151-0.516-1.151-1.152v0c0-0.636 0.516-1.152 1.151-1.152s1.151 0.516 1.151 1.152v0z"></path>
</svg>
