<!-- Generated by IcoMoon.io -->
<svg version="1.1" xmlns="http://www.w3.org/2000/svg" width="32" height="32" viewBox="0 0 32 32">
<title>twitt</title>
<path fill="#4d5ae5" d="M32 16c0 4.418-1.791 8.418-4.686 11.314s-6.895 4.686-11.314 4.686c-4.418 0-8.418-1.791-11.314-4.686s-4.686-6.895-4.686-11.314c0-4.418 1.791-8.418 4.686-11.314s6.895-4.686 11.314-4.686c4.418 0 8.418 1.791 11.314 4.686s4.686 6.895 4.686 11.314z"></path>
<path fill="#f4f4fd" d="M25.6 10.047c-0.66 0.296-1.425 0.515-2.227 0.618l-0.041 0.004c0.816-0.49 1.429-1.247 1.724-2.148l0.008-0.028c-0.718 0.434-1.555 0.764-2.446 0.944l-0.050 0.009c-0.72-0.768-1.741-1.246-2.873-1.246-2.174 0-3.936 1.762-3.936 3.936 0 0 0 0 0 0.001v-0c0 0.312 0.026 0.612 0.091 0.898-3.281-0.166-6.166-1.727-8.097-4.097l-0.016-0.020c-0.338 0.57-0.538 1.257-0.539 1.99v0c0 1.363 0.702 2.572 1.748 3.271-0.655-0.018-1.265-0.196-1.798-0.495l0.020 0.010v0.043c0.002 1.899 1.342 3.484 3.128 3.863l0.026 0.005c-0.32 0.088-0.67 0.13-1.032 0.13-0.252 0-0.506-0.014-0.745-0.067 0.51 1.559 1.957 2.705 3.678 2.742-1.328 1.047-3.026 1.679-4.872 1.679-0.003 0-0.006 0-0.009 0h0c-0.323 0-0.632-0.014-0.942-0.054 1.696 1.107 3.773 1.766 6.003 1.766 0.012 0 0.025-0 0.037-0h-0.002c7.243 0 11.203-6 11.203-11.201 0-0.174-0.006-0.342-0.014-0.509 0.78-0.562 1.435-1.24 1.955-2.016l0.018-0.028z"></path>
</svg>
